# xmcd
#
# Track frame offsets: 
#        150
#        29186
#        65912
#        95639
#        126734
#        144538
#        166050
#        180841
#        203035
#        223875
#        260659
#        271917
#        289439
#        307642
#
# Disc length: 4134 seconds
#
# Revision: 0
# Processed by: cddbd v1.5.2PL0 Copyright (c) Steve Scherf et al.
# Submitted via: ExactAudioCopy v0.99pb4
#
DISCID=e210240e
DTITLE=Ben Webster - The Brute and The Beautiful CD 2
DYEAR=2009
DGENRE=Jazz
TTITLE0=Star Dust
TTITLE1=My Romance
TTITLE2=Over the Rainbow
TTITLE3=Old Folks
TTITLE4=Come Sunday
TTITLE5=Bye, Bye Blackbird
TTITLE6=Tenderly
TTITLE7=Embraceable You
TTITLE8=Ad Lib Blues
TTITLE9=Sophisticated Lady
TTITLE10=Danny Boy
TTITLE11=Going Home
TTITLE12=You'd Be So Nice To Come Home To
TTITLE13=The Theme
EXTD=
EXTT0=
EXTT1=
EXTT2=
EXTT3=
EXTT4=
EXTT5=
EXTT6=
EXTT7=
EXTT8=
EXTT9=
EXTT10=
EXTT11=
EXTT12=
EXTT13=
PLAYORDER=
